<?xml version="1.0" encoding="utf-8"?>
<!-- Generator: Adobe Illustrator 17.0.0, SVG Export Plug-In . SVG Version: 6.00 Build 0)  -->
<!DOCTYPE svg PUBLIC "-//W3C//DTD SVG 1.1//EN" "http://www.w3.org/Graphics/SVG/1.1/DTD/svg11.dtd">
<svg version="1.1" id="Capa_1" xmlns="http://www.w3.org/2000/svg" xmlns:xlink="http://www.w3.org/1999/xlink" x="0px" y="0px"
	 width="199.3px" height="37.3px" viewBox="0 0 199.3 37.3" enable-background="new 0 0 199.3 37.3" xml:space="preserve">
<g>
	<polygon points="19.6,1.1 25.4,12.7 38.2,14.6 28.9,23.6 31.1,36.4 19.6,30.4 8.2,36.4 10.3,23.6 1.1,14.6 13.9,12.7 	"/>
	<polygon points="59.6,1.1 65.4,12.7 78.2,14.6 68.9,23.6 71.1,36.4 59.6,30.4 48.2,36.4 50.4,23.6 41.1,14.6 53.9,12.7 	"/>
	<polygon points="99.6,1.1 105.4,12.7 118.2,14.6 108.9,23.6 111.1,36.4 99.6,30.4 88.2,36.4 90.4,23.6 81.1,14.6 93.9,12.7 	"/>
	<polygon points="139.6,1.1 145.4,12.7 158.2,14.6 148.9,23.6 151.1,36.4 139.6,30.4 128.2,36.4 130.4,23.6 121.1,14.6 133.9,12.7 	
		"/>
	<polygon points="179.6,1.1 185.4,12.7 198.2,14.6 188.9,23.6 191.1,36.4 179.6,30.4 168.2,36.4 170.4,23.6 161.1,14.6 173.9,12.7 	
		"/>
</g>
</svg>